<svg id="svg" version="1.1" xmlns="http://www.w3.org/2000/svg" xmlns:xlink="http://www.w3.org/1999/xlink" width="400" height="400" viewBox="0, 0, 400,400"><g id="svgg"><path id="path0" d="M0.000 200.000 L 0.000 400.000 97.480 400.000 C 151.094 400.000,194.789 399.847,194.580 399.660 C 194.371 399.473,181.510 392.072,166.000 383.214 C 136.182 366.183,136.572 366.407,133.282 364.456 C 132.118 363.765,131.101 363.200,131.023 363.200 C 130.945 363.200,129.697 362.480,128.248 361.600 C 126.800 360.720,125.504 360.000,125.369 360.000 C 125.234 360.000,124.646 359.667,124.062 359.261 C 123.478 358.855,122.010 357.980,120.800 357.318 C 119.590 356.656,117.970 355.744,117.200 355.292 C 116.430 354.840,115.055 354.049,114.144 353.535 C 74.163 330.966,27.224 303.722,27.437 303.211 C 28.112 301.586,28.089 301.148,27.314 300.946 C 26.537 300.743,26.517 300.165,26.217 270.469 C 25.510 200.264,25.307 103.043,25.867 102.114 C 26.160 101.627,26.402 100.997,26.405 100.714 C 26.409 100.252,28.832 98.400,29.433 98.400 C 29.567 98.400,30.154 98.061,30.738 97.647 C 31.322 97.233,32.430 96.536,33.200 96.098 C 33.970 95.661,36.220 94.356,38.200 93.200 C 40.180 92.044,42.340 90.785,43.000 90.403 C 46.558 88.346,49.718 86.487,52.360 84.899 C 53.987 83.920,55.877 82.803,56.560 82.416 C 57.242 82.029,60.320 80.222,63.400 78.400 C 66.480 76.578,69.540 74.778,70.200 74.400 C 70.860 74.022,73.920 72.222,77.000 70.400 C 80.080 68.578,83.140 66.778,83.800 66.400 C 84.460 66.022,87.520 64.220,90.600 62.396 C 93.680 60.572,97.280 58.449,98.600 57.679 C 103.928 54.570,114.711 48.223,116.400 47.201 C 118.313 46.044,127.291 40.752,138.800 33.998 C 142.650 31.738,146.610 29.400,147.600 28.801 C 148.590 28.202,152.550 25.859,156.400 23.593 C 160.250 21.328,165.740 18.093,168.600 16.405 C 171.460 14.717,176.050 12.014,178.800 10.397 C 186.384 5.939,194.927 0.875,195.600 0.437 C 195.991 0.183,161.991 0.039,98.100 0.024 L 0.000 0.000 0.000 200.000 M203.200 0.158 C 203.200 0.376,206.077 2.155,212.000 5.600 C 214.750 7.200,217.810 8.999,218.800 9.599 C 219.790 10.199,223.750 12.537,227.600 14.794 C 231.450 17.052,235.410 19.392,236.400 19.995 C 237.390 20.598,240.450 22.400,243.200 24.000 C 245.950 25.600,249.010 27.399,250.000 27.999 C 250.990 28.599,254.950 30.937,258.800 33.194 C 262.650 35.452,266.610 37.792,267.600 38.394 C 268.590 38.997,272.506 41.312,276.303 43.540 C 291.296 52.340,297.076 55.745,298.800 56.794 C 299.790 57.397,303.706 59.712,307.503 61.940 C 322.496 70.740,328.276 74.145,330.000 75.194 C 330.990 75.797,334.860 78.085,338.600 80.279 C 347.044 85.234,358.487 91.976,362.200 94.184 C 363.740 95.100,366.655 96.822,368.678 98.012 L 372.355 100.175 372.564 102.587 C 372.679 103.914,372.869 129.570,372.986 159.600 C 373.103 189.630,373.317 234.045,373.461 258.300 L 373.724 302.400 371.962 302.401 C 370.857 302.402,369.678 302.725,368.800 303.267 C 366.928 304.422,360.493 308.193,346.500 316.334 C 343.915 317.838,338.650 320.922,334.800 323.186 C 330.950 325.451,327.260 327.617,326.600 328.001 C 325.940 328.384,323.780 329.647,321.800 330.808 C 319.820 331.969,316.130 334.122,313.600 335.594 C 311.070 337.065,305.850 340.122,302.000 342.386 C 298.150 344.651,294.460 346.817,293.800 347.201 C 293.140 347.584,290.980 348.847,289.000 350.008 C 287.020 351.169,283.330 353.322,280.800 354.794 C 278.270 356.265,273.050 359.322,269.200 361.586 C 265.350 363.851,261.660 366.017,261.000 366.401 C 260.340 366.784,258.180 368.047,256.200 369.208 C 254.220 370.369,250.530 372.522,248.000 373.994 C 245.470 375.465,240.250 378.522,236.400 380.786 C 232.550 383.051,228.860 385.217,228.200 385.601 C 227.540 385.984,225.380 387.247,223.400 388.408 C 216.674 392.351,210.209 396.117,207.100 397.904 C 205.395 398.884,204.000 399.756,204.000 399.843 C 204.000 399.929,248.100 400.000,302.000 400.000 L 400.000 400.000 400.000 200.000 L 400.000 0.000 301.600 0.000 C 247.480 0.000,203.200 0.071,203.200 0.158 " stroke="none" fill="#fbfbfb" fill-rule="evenodd"></path><path id="path1" d="M201.081 3.878 C 200.866 4.236,201.489 143.429,201.858 177.413 L 202.093 199.025 208.347 202.675 C 215.824 207.039,231.454 216.205,244.400 223.819 C 249.570 226.859,256.140 230.720,259.000 232.399 C 261.860 234.077,267.980 237.676,272.600 240.396 C 277.220 243.117,281.990 245.914,283.200 246.612 C 284.410 247.310,288.460 249.683,292.200 251.886 C 301.176 257.173,316.507 266.188,323.000 269.999 C 325.860 271.677,331.980 275.276,336.600 277.996 C 341.220 280.717,345.990 283.514,347.200 284.212 C 349.621 285.608,361.197 292.413,366.133 295.341 C 367.856 296.364,369.443 297.200,369.659 297.200 C 369.912 297.200,369.972 291.722,369.827 281.700 C 369.704 273.175,369.512 239.830,369.400 207.600 C 369.288 175.370,369.079 138.504,368.936 125.677 L 368.676 102.353 364.838 100.118 C 362.727 98.888,358.660 96.497,355.800 94.804 C 345.988 88.997,332.993 81.330,324.600 76.398 C 319.980 73.683,312.960 69.543,309.000 67.198 C 305.040 64.853,298.020 60.710,293.400 57.990 C 288.780 55.270,281.760 51.129,277.800 48.788 C 261.597 39.208,252.569 33.881,244.600 29.198 C 239.980 26.483,232.960 22.342,229.000 19.997 C 217.592 13.240,210.056 8.801,206.600 6.802 C 204.840 5.784,202.922 4.637,202.337 4.254 C 201.752 3.870,201.187 3.701,201.081 3.878 M194.400 5.551 C 193.410 6.179,188.820 8.906,184.200 11.610 C 179.580 14.315,172.560 18.448,168.600 20.795 C 164.640 23.141,157.620 27.281,153.000 29.995 C 148.380 32.708,141.360 36.848,137.400 39.195 C 133.440 41.541,126.420 45.681,121.800 48.395 C 117.180 51.108,110.160 55.248,106.200 57.595 C 102.240 59.941,95.220 64.081,90.600 66.795 C 85.980 69.508,78.960 73.648,75.000 75.995 C 71.040 78.341,64.020 82.483,59.400 85.198 C 54.780 87.914,46.680 92.689,41.400 95.809 C 36.120 98.930,31.192 101.824,30.449 102.241 L 29.098 103.000 29.349 162.600 C 29.737 254.380,30.085 296.800,30.450 296.800 C 30.633 296.800,34.342 294.699,38.691 292.132 C 43.041 289.565,50.560 285.126,55.400 282.268 C 69.082 274.189,73.948 271.323,83.000 266.008 C 87.620 263.296,93.740 259.692,96.600 258.000 C 99.460 256.308,105.580 252.706,110.200 249.996 C 114.820 247.286,122.020 243.049,126.200 240.580 C 130.380 238.111,137.400 233.973,141.800 231.383 C 146.200 228.794,152.140 225.291,155.000 223.600 C 157.860 221.908,163.980 218.308,168.600 215.600 C 173.220 212.892,179.340 209.291,182.200 207.597 C 185.060 205.904,189.793 203.120,192.717 201.410 L 198.034 198.302 197.767 146.451 C 197.107 18.244,196.995 4.665,196.600 4.538 C 196.380 4.468,195.390 4.924,194.400 5.551 M192.400 206.119 C 188.550 208.377,183.240 211.502,180.600 213.064 C 177.960 214.627,172.200 218.025,167.800 220.616 C 163.400 223.206,157.460 226.706,154.600 228.393 C 151.740 230.080,145.620 233.679,141.000 236.392 C 136.380 239.104,130.260 242.708,127.400 244.400 C 124.540 246.092,118.420 249.694,113.800 252.405 C 109.180 255.116,101.530 259.621,96.800 262.415 C 92.070 265.210,85.050 269.347,81.200 271.609 C 77.350 273.872,71.860 277.107,69.000 278.799 C 66.140 280.492,60.020 284.092,55.400 286.800 C 50.780 289.508,44.660 293.111,41.800 294.806 C 38.940 296.501,35.277 298.652,33.661 299.585 C 32.044 300.518,30.874 301.416,31.061 301.580 C 31.247 301.745,40.400 307.020,51.400 313.303 C 62.400 319.586,89.850 335.290,112.400 348.201 C 134.950 361.112,163.763 377.606,176.430 384.855 L 199.460 398.034 212.230 390.559 C 219.253 386.448,225.990 382.510,227.200 381.810 C 228.410 381.109,235.790 376.788,243.600 372.208 C 251.410 367.628,258.790 363.309,260.000 362.609 C 261.210 361.909,268.140 357.854,275.400 353.597 C 282.660 349.340,295.260 341.961,303.400 337.199 C 311.540 332.437,326.300 323.797,336.200 317.998 C 346.100 312.200,356.958 305.846,360.329 303.877 C 363.701 301.909,366.311 300.153,366.129 299.976 C 365.948 299.798,363.370 298.235,360.400 296.501 C 357.430 294.768,351.220 291.122,346.600 288.400 C 337.039 282.766,332.158 279.898,317.200 271.125 C 311.370 267.706,302.370 262.421,297.200 259.381 C 292.030 256.340,285.460 252.480,282.600 250.801 C 279.740 249.123,273.620 245.524,269.000 242.804 C 264.380 240.083,259.610 237.286,258.400 236.588 C 257.190 235.890,253.050 233.463,249.200 231.195 C 245.350 228.927,238.780 225.063,234.600 222.608 C 230.420 220.154,223.220 215.919,218.600 213.198 C 207.923 206.909,199.520 201.998,199.453 202.007 C 199.424 202.011,196.250 203.861,192.400 206.119 " stroke="none" fill="#3bb4fc" fill-rule="evenodd"></path><path id="path2" d="M192.200 3.044 C 189.560 4.667,186.050 6.774,184.400 7.724 C 182.750 8.675,175.820 12.755,169.000 16.792 C 162.180 20.828,155.160 24.970,153.400 25.997 C 151.640 27.023,144.620 31.160,137.800 35.190 C 124.130 43.267,115.977 48.073,109.600 51.812 C 107.290 53.167,99.820 57.573,93.000 61.603 C 86.180 65.634,78.710 70.038,76.400 71.390 C 28.175 99.625,26.789 100.472,27.076 101.568 C 27.204 102.060,26.992 102.361,26.409 102.514 C 25.554 102.737,25.553 102.753,25.793 113.069 C 25.926 118.751,26.205 163.090,26.414 211.600 C 26.822 306.375,26.677 300.292,28.552 300.917 C 28.860 301.020,28.837 301.400,28.476 302.193 C 27.807 303.662,25.298 302.054,53.000 317.909 C 66.420 325.589,86.040 336.825,96.600 342.877 C 107.160 348.929,133.530 364.012,155.200 376.395 C 176.870 388.777,194.884 399.154,195.231 399.454 C 196.025 400.140,199.052 400.174,199.367 399.500 C 199.553 399.100,199.647 399.100,199.833 399.500 C 200.184 400.252,202.732 400.101,203.938 399.257 C 204.522 398.849,210.940 395.044,218.200 390.803 C 225.460 386.561,238.690 378.824,247.600 373.609 C 256.510 368.394,271.270 359.754,280.400 354.410 C 289.530 349.065,304.380 340.373,313.400 335.093 C 322.420 329.813,337.720 320.861,347.400 315.199 C 357.080 309.538,366.110 304.252,367.467 303.453 C 369.227 302.417,370.407 302.000,371.583 302.000 L 373.232 302.000 373.017 278.300 C 372.899 265.265,372.711 230.390,372.599 200.800 C 372.488 171.210,372.278 136.543,372.134 123.762 L 371.873 100.523 363.836 95.784 C 359.416 93.177,354.540 90.296,353.000 89.381 C 351.460 88.467,344.620 84.430,337.800 80.412 C 324.053 72.311,318.886 69.265,304.200 60.601 C 298.700 57.357,291.680 53.217,288.600 51.401 C 285.520 49.586,278.500 45.446,273.000 42.201 C 267.500 38.957,260.480 34.817,257.400 33.001 C 254.320 31.186,247.300 27.046,241.800 23.802 C 236.300 20.558,228.830 16.152,225.200 14.011 C 206.193 2.801,202.589 0.632,202.467 0.330 C 201.862 -1.166,196.924 0.139,192.200 3.044 M207.084 6.456 C 210.118 8.247,213.140 10.022,213.800 10.400 C 214.460 10.778,217.520 12.581,220.600 14.406 C 223.680 16.232,227.640 18.569,229.400 19.600 C 231.160 20.631,235.120 22.968,238.200 24.794 C 241.280 26.619,244.358 28.429,245.040 28.816 C 245.723 29.203,247.613 30.319,249.240 31.296 C 250.868 32.272,254.450 34.391,257.200 36.004 C 268.005 42.341,273.063 45.338,274.491 46.249 C 275.312 46.772,276.062 47.200,276.159 47.200 C 276.256 47.200,277.925 48.162,279.868 49.338 C 283.533 51.555,291.707 56.403,293.800 57.601 C 294.460 57.978,297.520 59.778,300.600 61.600 C 303.680 63.422,306.758 65.229,307.440 65.616 C 308.123 66.003,310.013 67.118,311.640 68.094 C 315.482 70.399,323.463 75.122,325.000 76.001 C 325.660 76.378,328.720 78.181,331.800 80.006 C 334.880 81.832,338.840 84.169,340.600 85.200 C 342.360 86.231,346.320 88.568,349.400 90.394 C 352.480 92.219,355.540 94.022,356.200 94.400 C 359.814 96.470,368.662 101.736,369.038 102.040 C 369.349 102.292,369.551 118.756,369.737 158.897 C 369.881 189.974,370.117 233.985,370.261 256.700 C 370.545 301.162,370.638 298.881,368.589 297.448 C 368.155 297.145,367.170 296.538,366.400 296.100 C 364.673 295.117,359.424 292.040,347.900 285.258 C 337.394 279.075,331.483 275.607,329.400 274.405 C 328.740 274.024,325.680 272.222,322.600 270.400 C 319.520 268.578,316.460 266.778,315.800 266.400 C 315.140 266.022,312.080 264.222,309.000 262.400 C 305.920 260.578,302.860 258.776,302.200 258.395 C 300.823 257.600,295.556 254.515,290.600 251.600 C 288.730 250.500,285.670 248.700,283.800 247.600 C 281.930 246.500,278.870 244.700,277.000 243.600 C 272.044 240.685,266.777 237.600,265.400 236.805 C 264.740 236.424,261.680 234.622,258.600 232.800 C 255.520 230.978,252.460 229.178,251.800 228.800 C 251.140 228.422,248.080 226.622,245.000 224.800 C 241.920 222.978,238.860 221.176,238.200 220.795 C 236.823 220.000,231.556 216.915,226.600 214.000 C 224.730 212.900,221.625 211.074,219.700 209.942 C 217.775 208.810,214.670 206.984,212.800 205.884 C 210.930 204.784,207.870 202.997,206.000 201.913 C 204.130 200.828,202.357 199.705,202.061 199.417 C 201.022 198.407,199.980 3.200,201.013 3.200 C 201.319 3.200,204.050 4.665,207.084 6.456 M197.738 42.500 C 197.883 63.895,198.119 107.773,198.263 140.006 L 198.524 198.613 195.162 200.585 C 193.313 201.670,190.000 203.628,187.800 204.937 C 185.600 206.246,183.260 207.625,182.600 208.002 C 181.940 208.379,178.880 210.178,175.800 212.000 C 172.720 213.822,169.660 215.622,169.000 216.000 C 168.340 216.378,165.280 218.178,162.200 220.000 C 159.120 221.822,156.060 223.622,155.400 224.000 C 154.740 224.378,151.680 226.181,148.600 228.006 C 142.752 231.473,138.391 234.037,134.000 236.590 C 132.570 237.421,130.590 238.594,129.600 239.197 C 128.610 239.799,125.550 241.605,122.800 243.210 C 120.050 244.815,116.468 246.928,114.840 247.904 C 113.213 248.881,111.323 249.997,110.640 250.384 C 109.958 250.771,106.880 252.578,103.800 254.400 C 100.720 256.222,97.660 258.022,97.000 258.400 C 96.340 258.778,93.280 260.578,90.200 262.400 C 87.120 264.222,84.060 266.022,83.400 266.400 C 82.740 266.778,79.680 268.578,76.600 270.400 C 73.520 272.222,70.442 274.029,69.760 274.416 C 69.077 274.803,67.187 275.916,65.560 276.890 C 62.249 278.871,58.195 281.263,50.800 285.598 C 48.050 287.210,44.468 289.328,42.840 290.304 C 41.213 291.281,39.323 292.397,38.640 292.783 C 37.958 293.169,35.837 294.411,33.926 295.543 C 32.016 296.674,30.287 297.600,30.086 297.600 C 29.490 297.600,28.132 105.697,28.710 103.176 C 28.827 102.670,33.703 99.595,40.736 95.594 C 42.618 94.523,51.690 89.144,55.332 86.939 C 57.275 85.762,58.944 84.800,59.041 84.800 C 59.138 84.800,59.888 84.372,60.709 83.849 C 62.156 82.926,67.706 79.638,78.000 73.607 C 80.750 71.996,84.589 69.715,86.532 68.539 C 88.475 67.362,90.144 66.400,90.241 66.400 C 90.338 66.400,91.088 65.972,91.909 65.449 C 93.337 64.538,98.395 61.541,109.200 55.204 C 111.950 53.591,115.532 51.472,117.160 50.496 C 118.787 49.519,120.677 48.403,121.360 48.016 C 122.042 47.629,125.120 45.819,128.200 43.994 C 131.280 42.168,135.240 39.831,137.000 38.800 C 138.760 37.769,142.720 35.432,145.800 33.606 C 148.880 31.781,151.940 29.978,152.600 29.600 C 153.260 29.222,156.320 27.419,159.400 25.594 C 162.480 23.768,166.440 21.431,168.200 20.400 C 169.960 19.369,173.920 17.032,177.000 15.206 C 180.080 13.381,183.140 11.578,183.800 11.201 C 185.588 10.178,194.020 5.199,195.400 4.351 C 196.060 3.945,196.797 3.610,197.038 3.607 C 197.350 3.602,197.551 14.752,197.738 42.500 M202.907 203.339 C 205.609 204.963,209.410 207.196,212.200 208.798 C 212.860 209.177,215.920 210.978,219.000 212.800 C 222.080 214.622,225.140 216.422,225.800 216.800 C 226.460 217.178,229.520 218.978,232.600 220.800 C 235.680 222.622,238.740 224.424,239.400 224.805 C 240.814 225.621,246.249 228.805,250.900 231.542 C 252.715 232.610,255.775 234.410,257.700 235.542 C 259.625 236.674,262.685 238.474,264.500 239.542 C 268.986 242.183,274.741 245.553,276.200 246.395 C 276.860 246.776,279.920 248.578,283.000 250.400 C 286.080 252.222,289.140 254.022,289.800 254.400 C 290.460 254.778,293.520 256.578,296.600 258.400 C 299.680 260.222,302.740 262.024,303.400 262.405 C 304.859 263.247,310.614 266.617,315.100 269.258 C 316.915 270.326,319.885 272.074,321.700 273.142 C 332.206 279.325,338.117 282.793,340.200 283.995 C 340.860 284.376,343.920 286.178,347.000 288.000 C 350.080 289.822,353.140 291.622,353.800 292.000 C 363.579 297.601,367.614 300.172,367.176 300.522 C 367.079 300.599,365.740 301.387,364.200 302.273 C 362.660 303.158,359.780 304.832,357.800 305.993 C 355.820 307.153,353.660 308.416,353.000 308.800 C 351.317 309.778,346.368 312.675,336.600 318.400 C 326.832 324.125,321.883 327.022,320.200 328.000 C 318.517 328.978,313.568 331.875,303.800 337.600 C 294.032 343.325,289.083 346.222,287.400 347.200 C 285.717 348.178,280.768 351.075,271.000 356.800 C 261.232 362.525,256.283 365.422,254.600 366.400 C 251.681 368.096,246.078 371.379,239.600 375.188 C 235.750 377.452,232.060 379.617,231.400 380.001 C 230.740 380.384,228.580 381.644,226.600 382.800 C 224.620 383.956,222.460 385.216,221.800 385.600 C 219.550 386.908,213.810 390.266,206.869 394.336 C 203.058 396.571,199.703 398.400,199.414 398.400 C 199.125 398.400,194.144 395.679,188.344 392.352 C 176.463 385.538,176.204 385.389,173.282 383.656 C 172.118 382.965,171.066 382.400,170.944 382.400 C 170.823 382.400,170.246 382.067,169.662 381.661 C 169.078 381.255,167.610 380.381,166.400 379.720 C 165.190 379.058,163.247 377.951,162.082 377.259 C 160.918 376.566,159.866 376.000,159.744 376.000 C 159.623 376.000,159.046 375.667,158.462 375.261 C 157.878 374.855,156.410 373.977,155.200 373.310 C 153.990 372.644,135.000 361.795,113.000 349.203 C 70.618 324.944,71.742 325.589,68.482 323.656 C 67.318 322.965,66.266 322.400,66.144 322.400 C 66.023 322.400,65.446 322.067,64.862 321.661 C 64.278 321.255,62.810 320.381,61.600 319.720 C 60.390 319.058,58.447 317.951,57.282 317.259 C 56.118 316.566,55.066 316.000,54.944 316.000 C 54.823 316.000,54.246 315.667,53.662 315.261 C 53.078 314.855,51.610 313.978,50.400 313.312 C 49.190 312.646,44.716 310.099,40.458 307.651 C 36.200 305.203,32.600 303.199,32.458 303.198 C 32.316 303.197,31.671 302.773,31.025 302.256 L 29.851 301.316 30.825 300.695 C 31.922 299.997,39.556 295.451,41.400 294.398 C 42.060 294.021,45.120 292.222,48.200 290.400 C 51.280 288.578,54.340 286.778,55.000 286.400 C 55.660 286.022,58.720 284.222,61.800 282.400 C 64.880 280.578,67.940 278.778,68.600 278.400 C 69.260 278.022,72.320 276.222,75.400 274.400 C 78.480 272.578,81.558 270.771,82.240 270.384 C 82.923 269.997,84.813 268.881,86.440 267.904 C 88.068 266.928,91.650 264.810,94.400 263.198 C 97.150 261.586,100.930 259.370,102.800 258.274 C 104.670 257.178,107.010 255.793,108.000 255.195 C 108.990 254.597,112.050 252.795,114.800 251.190 C 117.550 249.585,121.132 247.472,122.760 246.496 C 124.387 245.519,126.277 244.403,126.960 244.016 C 127.642 243.629,130.720 241.822,133.800 240.000 C 136.880 238.178,139.940 236.378,140.600 236.000 C 141.260 235.622,144.320 233.822,147.400 232.000 C 150.480 230.178,153.540 228.378,154.200 228.000 C 154.860 227.622,157.920 225.819,161.000 223.994 C 164.080 222.168,168.130 219.777,170.000 218.679 C 171.870 217.582,174.885 215.810,176.700 214.742 C 178.515 213.674,181.485 211.926,183.300 210.858 C 185.115 209.790,188.130 208.021,190.000 206.927 C 191.870 205.833,194.570 204.205,196.000 203.307 C 199.287 201.246,199.425 201.246,202.907 203.339 " stroke="none" fill="#060b0e" fill-rule="evenodd"></path><path id="path3" d="M193.660 1.623 C 192.263 2.491,191.062 3.200,190.992 3.200 C 190.922 3.200,189.275 4.162,187.332 5.338 C 183.667 7.555,175.493 12.403,173.400 13.601 C 172.740 13.978,169.680 15.778,166.600 17.600 C 163.520 19.422,160.460 21.222,159.800 21.599 C 158.263 22.478,150.282 27.201,146.440 29.506 C 144.813 30.482,142.923 31.597,142.240 31.984 C 141.558 32.371,138.480 34.178,135.400 36.000 C 132.320 37.822,129.260 39.622,128.600 39.999 C 127.063 40.878,119.082 45.601,115.240 47.906 C 113.613 48.882,111.723 49.997,111.040 50.384 C 110.358 50.771,107.280 52.578,104.200 54.400 C 101.120 56.222,98.060 58.022,97.400 58.399 C 95.863 59.278,87.882 64.001,84.040 66.306 C 82.413 67.282,80.523 68.397,79.840 68.784 C 79.158 69.171,76.080 70.978,73.000 72.800 C 69.920 74.622,66.842 76.429,66.160 76.816 C 65.477 77.203,63.587 78.318,61.960 79.293 C 60.332 80.269,55.850 82.927,52.000 85.199 C 48.150 87.471,40.973 91.731,36.050 94.665 C 31.128 97.599,26.943 100.000,26.750 100.000 C 26.558 100.000,26.400 100.276,26.400 100.614 C 26.400 100.952,26.160 101.627,25.867 102.114 C 25.307 103.043,25.510 200.266,26.218 270.500 C 26.517 300.239,26.537 300.800,27.308 300.800 C 28.097 300.800,28.140 301.573,27.443 303.211 C 27.225 303.723,74.022 330.886,114.144 353.535 C 115.055 354.049,116.430 354.840,117.200 355.292 C 117.970 355.744,119.590 356.656,120.800 357.318 C 122.010 357.980,123.478 358.855,124.062 359.261 C 124.646 359.667,125.234 360.000,125.369 360.000 C 125.504 360.000,126.800 360.720,128.248 361.600 C 129.697 362.480,130.945 363.200,131.023 363.200 C 131.101 363.200,132.118 363.765,133.282 364.456 C 142.359 369.839,195.333 400.001,195.470 399.864 C 195.751 399.583,194.555 398.886,155.200 376.396 C 133.530 364.013,107.160 348.929,96.600 342.877 C 86.040 336.825,66.420 325.589,53.000 317.909 C 25.298 302.054,27.807 303.662,28.476 302.193 C 28.837 301.400,28.860 301.020,28.552 300.917 C 26.677 300.292,26.822 306.375,26.414 211.600 C 26.205 163.090,25.926 118.751,25.793 113.069 C 25.553 102.753,25.554 102.737,26.409 102.514 C 26.992 102.361,27.204 102.060,27.076 101.568 C 26.809 100.548,26.906 100.483,40.000 92.802 C 52.069 85.723,71.336 74.383,88.800 64.081 C 94.190 60.901,101.210 56.765,104.400 54.889 C 107.590 53.014,112.540 50.094,115.400 48.400 C 118.260 46.706,123.210 43.786,126.400 41.911 C 129.590 40.035,136.700 35.846,142.200 32.601 C 147.700 29.357,154.720 25.217,157.800 23.401 C 192.970 2.670,196.800 0.390,196.800 0.184 C 196.800 -0.212,196.102 0.107,193.660 1.623 M202.411 0.300 C 202.416 0.465,206.061 2.741,210.511 5.357 C 214.960 7.973,221.570 11.867,225.200 14.009 C 233.683 19.015,250.215 28.766,257.400 33.001 C 260.480 34.817,267.500 38.957,273.000 42.201 C 278.500 45.446,285.520 49.586,288.600 51.401 C 291.680 53.217,298.700 57.357,304.200 60.601 C 318.886 69.265,324.053 72.311,337.800 80.412 C 344.620 84.430,351.460 88.467,353.000 89.381 C 354.540 90.296,359.416 93.177,363.836 95.784 L 371.873 100.523 372.134 123.762 C 372.278 136.543,372.488 171.210,372.599 200.800 C 372.711 230.390,372.899 265.265,373.017 278.300 L 373.232 302.000 371.583 302.000 C 370.407 302.000,369.227 302.417,367.467 303.453 C 366.110 304.252,357.080 309.538,347.400 315.199 C 330.946 324.823,322.684 329.658,280.600 354.293 C 271.580 359.573,256.820 368.211,247.800 373.489 C 201.485 400.590,203.100 399.633,203.312 399.845 C 203.411 399.944,205.092 399.093,207.046 397.954 C 209.001 396.814,212.670 394.675,215.200 393.200 C 217.730 391.725,221.330 389.619,223.200 388.521 C 231.368 383.722,243.764 376.462,248.000 373.996 C 250.530 372.523,254.130 370.419,256.000 369.321 C 264.168 364.522,276.564 357.262,280.800 354.796 C 283.330 353.323,286.930 351.219,288.800 350.121 C 296.968 345.322,309.364 338.062,313.600 335.596 C 316.130 334.123,319.730 332.019,321.600 330.921 C 329.655 326.188,342.156 318.867,346.500 316.337 C 361.847 307.400,366.944 304.413,368.800 303.267 C 369.678 302.725,370.857 302.402,371.962 302.401 L 373.724 302.400 373.461 258.300 C 373.317 234.045,373.103 189.630,372.986 159.600 C 372.869 129.570,372.679 103.914,372.564 102.587 L 372.355 100.175 368.678 98.006 C 366.655 96.814,363.020 94.676,360.600 93.257 C 358.180 91.837,354.611 89.713,352.668 88.538 C 350.725 87.362,349.056 86.400,348.959 86.400 C 348.862 86.400,348.112 85.972,347.291 85.449 C 345.863 84.538,340.805 81.541,330.000 75.204 C 327.250 73.591,323.668 71.472,322.040 70.496 C 320.413 69.519,318.523 68.403,317.840 68.016 C 317.158 67.629,314.080 65.819,311.000 63.994 C 307.920 62.168,303.960 59.831,302.200 58.800 C 300.440 57.769,296.480 55.432,293.400 53.606 C 290.320 51.781,287.260 49.978,286.600 49.600 C 285.940 49.222,282.880 47.419,279.800 45.594 C 276.720 43.768,272.760 41.431,271.000 40.400 C 269.240 39.369,265.280 37.032,262.200 35.206 C 259.120 33.381,256.042 31.571,255.360 31.184 C 254.677 30.797,252.787 29.681,251.160 28.704 C 249.532 27.728,245.950 25.609,243.200 23.996 C 232.395 17.659,227.337 14.662,225.909 13.751 C 225.088 13.228,224.338 12.800,224.241 12.800 C 224.144 12.800,222.475 11.838,220.532 10.661 C 218.589 9.485,214.750 7.213,212.000 5.613 C 209.250 4.013,206.058 2.095,204.906 1.352 C 202.721 -0.059,202.393 -0.197,202.411 0.300 M200.558 28.200 C 200.558 31.280,200.621 32.487,200.697 30.882 C 200.773 29.278,200.773 26.758,200.696 25.282 C 200.619 23.807,200.557 25.120,200.558 28.200 M197.758 67.000 C 197.758 70.080,197.821 71.287,197.897 69.682 C 197.973 68.078,197.973 65.558,197.896 64.082 C 197.819 62.607,197.757 63.920,197.758 67.000 M28.550 107.800 C 28.551 110.220,28.616 111.158,28.696 109.885 C 28.776 108.612,28.775 106.632,28.694 105.485 C 28.614 104.338,28.549 105.380,28.550 107.800 M198.173 120.200 C 198.173 125.480,198.230 127.585,198.299 124.877 C 198.368 122.169,198.368 117.849,198.299 115.277 C 198.229 112.705,198.172 114.920,198.173 120.200 M200.973 130.200 C 200.973 135.480,201.030 137.585,201.099 134.877 C 201.168 132.169,201.168 127.849,201.099 125.277 C 201.029 122.705,200.972 124.920,200.973 130.200 M201.358 182.600 C 201.358 185.680,201.421 186.887,201.497 185.282 C 201.573 183.678,201.573 181.158,201.496 179.682 C 201.419 178.207,201.357 179.520,201.358 182.600 M369.758 192.600 C 369.758 195.680,369.821 196.887,369.897 195.282 C 369.973 193.678,369.973 191.158,369.896 189.682 C 369.819 188.207,369.757 189.520,369.758 192.600 M28.973 207.800 C 28.973 213.080,29.030 215.185,29.099 212.477 C 29.168 209.769,29.168 205.449,29.099 202.877 C 29.029 200.305,28.972 202.520,28.973 207.800 M370.173 245.800 C 370.173 251.080,370.230 253.185,370.299 250.477 C 370.368 247.769,370.368 243.449,370.299 240.877 C 370.229 238.305,370.172 240.520,370.173 245.800 M29.358 260.200 C 29.358 263.280,29.421 264.487,29.497 262.882 C 29.573 261.278,29.573 258.758,29.496 257.282 C 29.419 255.807,29.357 257.120,29.358 260.200 " stroke="none" fill="#646668" fill-rule="evenodd"></path><path id="path4" d="M200.489 13.100 L 200.578 23.000 200.789 13.400 C 201.021 2.857,200.884 3.280,203.517 4.954 C 204.333 5.473,208.780 8.109,213.400 10.813 C 218.020 13.516,225.040 17.648,229.000 19.995 C 232.960 22.341,239.980 26.483,244.600 29.198 C 252.569 33.881,261.597 39.208,277.800 48.788 C 281.760 51.129,288.780 55.270,293.400 57.990 C 298.020 60.710,305.040 64.853,309.000 67.198 C 312.960 69.543,319.980 73.683,324.600 76.398 C 332.993 81.330,345.988 88.997,355.800 94.804 C 358.660 96.497,362.755 98.904,364.900 100.154 L 368.800 102.426 368.858 111.913 C 368.889 117.131,369.034 138.590,369.178 159.600 L 369.441 197.800 369.508 150.400 C 369.560 113.659,369.465 102.862,369.087 102.386 C 368.644 101.828,367.833 101.299,364.200 99.197 C 359.563 96.514,355.814 94.306,353.459 92.871 C 351.952 91.952,350.661 91.200,350.591 91.200 C 350.521 91.200,348.875 90.238,346.932 89.062 C 343.332 86.884,335.170 82.042,333.000 80.797 C 329.996 79.075,326.296 76.900,322.800 74.803 C 320.710 73.550,316.750 71.207,314.000 69.598 C 311.250 67.988,307.668 65.872,306.040 64.896 C 304.413 63.919,302.523 62.802,301.840 62.414 C 299.290 60.965,295.282 58.612,291.600 56.403 C 289.510 55.150,285.550 52.807,282.800 51.198 C 280.050 49.588,276.468 47.472,274.840 46.496 C 273.213 45.519,271.323 44.403,270.640 44.017 C 269.189 43.195,261.493 38.645,257.240 36.094 C 255.613 35.118,253.723 34.001,253.040 33.611 C 249.903 31.819,244.753 28.791,242.259 27.271 C 240.752 26.352,239.461 25.600,239.391 25.600 C 239.321 25.600,237.675 24.638,235.732 23.462 C 232.257 21.359,224.150 16.548,221.800 15.194 C 217.846 12.916,213.443 10.324,211.059 8.871 C 209.552 7.952,208.260 7.200,208.188 7.200 C 208.117 7.200,206.592 6.300,204.800 5.200 C 200.029 2.272,200.386 1.617,200.489 13.100 M195.971 4.159 C 194.655 4.862,190.592 7.241,186.000 10.000 C 182.517 12.092,178.858 14.244,175.800 15.997 C 173.630 17.242,165.468 22.084,161.868 24.262 C 159.925 25.438,158.279 26.400,158.209 26.400 C 158.139 26.400,156.848 27.152,155.341 28.071 C 152.957 29.524,148.554 32.116,144.600 34.394 C 142.250 35.748,134.143 40.559,130.668 42.662 C 128.725 43.838,127.079 44.800,127.009 44.800 C 126.939 44.800,125.648 45.552,124.141 46.471 C 121.757 47.924,117.354 50.516,113.400 52.794 C 111.050 54.148,102.943 58.959,99.468 61.062 C 97.525 62.238,95.879 63.200,95.809 63.200 C 95.739 63.200,94.448 63.952,92.941 64.871 C 90.447 66.391,85.297 69.419,82.160 71.211 C 81.477 71.601,79.587 72.719,77.960 73.696 C 72.575 76.927,65.020 81.397,64.600 81.600 C 63.937 81.920,54.346 87.607,52.709 88.650 C 51.888 89.172,51.143 89.600,51.053 89.600 C 50.963 89.600,48.509 91.040,45.600 92.800 C 42.691 94.560,40.260 96.000,40.197 96.000 C 40.133 96.000,38.877 96.732,37.405 97.626 C 33.313 100.112,31.522 101.156,30.100 101.883 L 28.800 102.548 28.858 146.974 C 28.890 171.408,29.048 205.710,29.209 223.200 C 29.388 242.702,29.431 225.609,29.319 179.000 L 29.136 103.000 30.468 102.241 C 31.201 101.824,36.120 98.930,41.400 95.809 C 46.680 92.689,54.780 87.914,59.400 85.198 C 64.020 82.483,71.040 78.341,75.000 75.995 C 78.960 73.648,85.980 69.508,90.600 66.795 C 95.220 64.081,102.240 59.941,106.200 57.595 C 110.160 55.248,117.180 51.108,121.800 48.395 C 126.420 45.681,133.440 41.541,137.400 39.195 C 141.360 36.848,148.380 32.708,153.000 29.995 C 157.620 27.281,164.640 23.141,168.600 20.795 C 172.560 18.448,179.580 14.314,184.200 11.608 C 188.820 8.902,193.465 6.148,194.523 5.487 C 195.718 4.742,196.589 4.429,196.821 4.661 C 197.046 4.886,197.237 18.447,197.300 38.618 L 197.405 72.200 197.502 38.124 C 197.603 3.103,197.611 3.284,195.971 4.159 M200.938 68.400 C 200.926 93.370,201.035 128.110,201.179 145.600 L 201.441 177.400 201.462 138.800 C 201.474 117.570,201.366 82.830,201.222 61.600 L 200.959 23.000 200.938 68.400 M197.838 135.466 L 197.984 198.331 192.692 201.425 C 189.781 203.127,185.060 205.904,182.200 207.597 C 179.340 209.291,173.220 212.892,168.600 215.600 C 163.980 218.308,157.860 221.908,155.000 223.600 C 152.140 225.291,146.200 228.794,141.800 231.383 C 137.400 233.973,130.380 238.111,126.200 240.580 C 122.020 243.049,114.820 247.286,110.200 249.996 C 105.580 252.706,99.460 256.308,96.600 258.000 C 93.740 259.692,87.620 263.296,83.000 266.008 C 73.948 271.323,69.082 274.189,55.400 282.268 C 50.560 285.126,43.041 289.565,38.691 292.132 C 34.342 294.699,30.608 296.800,30.395 296.800 C 30.151 296.800,29.967 289.054,29.900 275.900 L 29.793 255.000 29.696 276.300 C 29.593 299.155,29.525 298.423,31.600 296.800 C 32.150 296.370,32.717 296.014,32.859 296.009 C 33.002 296.004,34.352 295.248,35.859 294.329 C 38.353 292.809,43.503 289.781,46.640 287.989 C 47.323 287.599,49.213 286.481,50.840 285.504 C 52.468 284.528,56.050 282.412,58.800 280.803 C 61.550 279.194,65.389 276.915,67.332 275.739 C 69.275 274.562,70.927 273.600,71.003 273.600 C 71.079 273.600,72.608 272.700,74.400 271.600 C 76.192 270.500,77.717 269.600,77.788 269.600 C 77.860 269.600,79.152 268.848,80.659 267.929 C 83.043 266.476,87.446 263.884,91.400 261.606 C 94.677 259.717,101.974 255.388,103.291 254.549 C 104.112 254.027,104.858 253.600,104.951 253.600 C 105.043 253.600,106.352 252.848,107.859 251.929 C 110.353 250.409,115.503 247.381,118.640 245.589 C 119.323 245.199,121.213 244.081,122.840 243.104 C 124.468 242.128,128.050 240.010,130.800 238.398 C 138.195 234.063,142.249 231.671,145.560 229.690 C 147.187 228.716,149.077 227.603,149.760 227.217 C 152.222 225.822,160.233 221.077,161.691 220.149 C 162.512 219.627,163.258 219.200,163.351 219.200 C 163.443 219.200,164.752 218.448,166.259 217.529 C 168.643 216.076,173.046 213.484,177.000 211.206 C 180.277 209.317,187.574 204.988,188.891 204.149 C 189.712 203.627,190.463 203.200,190.562 203.200 C 190.661 203.200,192.149 202.336,193.871 201.280 C 195.592 200.225,197.315 199.240,197.700 199.093 C 198.496 198.788,198.586 169.596,197.990 104.800 C 197.769 80.821,197.730 88.651,197.838 135.466 M201.790 188.456 L 201.800 199.311 204.340 200.856 C 205.737 201.705,206.956 202.400,207.049 202.400 C 207.141 202.400,207.888 202.827,208.709 203.349 C 210.026 204.188,217.323 208.517,220.600 210.406 C 221.742 211.064,224.835 212.873,232.400 217.309 C 234.270 218.406,236.361 219.623,237.047 220.015 C 237.732 220.406,239.506 221.463,240.988 222.363 C 242.469 223.263,243.757 224.000,243.849 224.000 C 243.942 224.000,244.688 224.427,245.509 224.949 C 246.860 225.809,254.437 230.304,257.400 232.003 C 260.129 233.568,263.979 235.830,266.760 237.501 C 268.387 238.480,270.277 239.599,270.960 239.989 C 272.271 240.738,277.010 243.511,282.500 246.742 C 292.653 252.718,299.479 256.720,301.047 257.615 C 301.732 258.006,303.506 259.063,304.988 259.963 C 306.469 260.863,307.757 261.600,307.849 261.600 C 307.942 261.600,308.688 262.027,309.509 262.549 C 310.860 263.409,318.437 267.904,321.400 269.603 C 324.129 271.168,327.979 273.430,330.760 275.101 C 332.387 276.080,334.277 277.199,334.960 277.589 C 336.559 278.502,341.026 281.121,353.400 288.400 C 370.864 298.673,369.955 298.183,370.231 297.464 C 370.358 297.132,370.289 274.572,370.078 247.330 L 369.694 197.800 369.747 247.500 C 369.776 274.835,369.680 297.200,369.533 297.200 C 369.386 297.200,367.856 296.364,366.133 295.341 C 361.197 292.413,349.621 285.608,347.200 284.212 C 345.990 283.514,341.220 280.717,336.600 277.996 C 331.980 275.276,325.860 271.677,323.000 269.999 C 316.507 266.188,301.176 257.173,292.200 251.886 C 288.460 249.683,284.410 247.310,283.200 246.612 C 281.990 245.914,277.220 243.117,272.600 240.396 C 267.980 237.676,261.860 234.077,259.000 232.399 C 256.140 230.720,249.570 226.859,244.400 223.819 C 229.835 215.253,215.222 206.686,208.310 202.662 L 202.020 199.000 201.900 188.300 L 201.780 177.600 201.790 188.456 M195.600 203.684 C 193.730 204.794,191.642 206.020,190.960 206.410 C 190.277 206.800,188.387 207.916,186.760 208.890 C 183.350 210.931,179.088 213.444,172.000 217.595 C 169.250 219.205,165.411 221.485,163.468 222.661 C 161.525 223.838,159.873 224.800,159.797 224.800 C 159.721 224.800,158.192 225.700,156.400 226.800 C 154.608 227.900,153.078 228.800,153.000 228.800 C 152.922 228.800,151.392 229.700,149.600 230.800 C 147.808 231.900,146.283 232.800,146.212 232.800 C 146.140 232.800,144.848 233.552,143.341 234.471 C 140.957 235.924,136.554 238.516,132.600 240.794 C 129.323 242.683,122.026 247.012,120.709 247.851 C 119.888 248.373,119.142 248.800,119.049 248.800 C 118.957 248.800,117.648 249.552,116.141 250.471 C 113.647 251.991,108.497 255.019,105.360 256.811 C 104.677 257.201,102.787 258.319,101.160 259.296 C 99.532 260.272,95.950 262.388,93.200 263.997 C 90.450 265.606,86.611 267.885,84.668 269.061 C 82.725 270.238,81.073 271.200,80.997 271.200 C 80.921 271.200,79.392 272.100,77.600 273.200 C 75.808 274.300,74.283 275.200,74.212 275.200 C 74.140 275.200,72.848 275.952,71.341 276.871 C 68.847 278.391,63.697 281.419,60.560 283.211 C 59.877 283.601,57.987 284.720,56.360 285.699 C 53.401 287.478,49.297 289.886,46.960 291.214 C 46.277 291.602,44.387 292.721,42.760 293.700 C 41.132 294.679,38.450 296.268,36.800 297.230 C 29.541 301.465,30.094 301.049,30.800 301.752 C 31.130 302.081,35.540 304.722,40.600 307.623 C 45.660 310.523,50.385 313.234,51.100 313.648 C 51.815 314.062,53.030 314.760,53.800 315.200 C 54.570 315.640,55.830 316.360,56.600 316.800 C 57.370 317.240,58.630 317.960,59.400 318.400 C 60.170 318.840,61.430 319.560,62.200 320.000 C 62.970 320.440,64.230 321.160,65.000 321.600 C 65.770 322.040,67.030 322.760,67.800 323.200 C 71.265 325.180,71.924 325.562,73.918 326.744 C 75.082 327.435,76.099 328.000,76.177 328.000 C 76.255 328.000,77.503 328.720,78.952 329.600 C 80.400 330.480,81.696 331.200,81.831 331.200 C 81.966 331.200,82.554 331.533,83.138 331.939 C 83.722 332.345,85.190 333.219,86.400 333.880 C 87.610 334.542,89.553 335.649,90.718 336.341 C 91.882 337.034,92.934 337.600,93.056 337.600 C 93.177 337.600,93.754 337.933,94.338 338.339 C 94.922 338.745,96.390 339.623,97.600 340.290 C 99.355 341.256,150.880 370.737,155.900 373.646 C 156.615 374.061,157.830 374.760,158.600 375.200 C 159.370 375.640,160.630 376.360,161.400 376.800 C 162.170 377.240,163.430 377.960,164.200 378.400 C 158.143 374.939,175.857 385.061,169.800 381.600 C 170.570 382.040,171.830 382.760,172.600 383.200 C 176.065 385.180,176.724 385.562,178.718 386.744 C 179.882 387.435,180.934 388.000,181.056 388.000 C 181.177 388.000,181.754 388.333,182.338 388.739 C 182.922 389.145,184.390 390.019,185.600 390.680 C 186.810 391.342,188.753 392.449,189.918 393.141 C 191.082 393.834,192.099 394.400,192.177 394.400 C 192.255 394.400,193.462 395.080,194.859 395.910 C 199.700 398.787,199.160 398.724,202.470 396.801 C 204.082 395.865,205.940 394.787,206.600 394.406 C 207.260 394.024,208.790 393.121,210.000 392.400 C 211.210 391.679,212.785 390.753,213.500 390.344 C 214.215 389.935,215.385 389.265,216.100 388.856 C 216.815 388.447,218.390 387.521,219.600 386.800 C 220.810 386.079,222.340 385.176,223.000 384.795 C 224.149 384.132,227.427 382.214,234.800 377.891 C 236.670 376.794,238.740 375.586,239.400 375.205 C 240.060 374.824,241.590 373.921,242.800 373.200 C 244.947 371.920,246.203 371.192,248.947 369.637 C 249.687 369.217,251.506 368.137,252.988 367.237 C 254.469 366.337,255.757 365.600,255.849 365.600 C 255.942 365.600,256.688 365.173,257.509 364.651 C 258.912 363.758,266.645 359.174,269.500 357.543 C 272.878 355.612,273.544 355.226,275.600 354.000 C 277.656 352.774,278.322 352.388,281.700 350.457 C 282.415 350.049,285.070 348.492,287.600 346.998 C 299.208 340.142,301.082 339.039,302.300 338.343 C 305.678 336.412,306.344 336.026,308.400 334.800 C 310.456 333.574,311.122 333.188,314.500 331.257 C 315.718 330.561,317.592 329.458,329.200 322.602 C 331.730 321.108,334.385 319.551,335.100 319.143 C 338.478 317.212,339.144 316.826,341.200 315.600 C 343.256 314.374,343.922 313.988,347.300 312.057 C 348.015 311.649,350.580 310.144,353.000 308.714 C 355.420 307.283,359.515 304.873,362.100 303.358 C 368.028 299.882,368.080 300.388,361.400 296.573 C 358.964 295.182,353.441 291.923,351.059 290.471 C 349.552 289.552,348.243 288.800,348.151 288.800 C 348.058 288.800,347.312 288.373,346.491 287.851 C 345.140 286.991,337.563 282.496,334.600 280.797 C 331.871 279.232,328.021 276.970,325.240 275.299 C 323.613 274.320,321.723 273.201,321.040 272.811 C 320.358 272.421,318.225 271.180,316.300 270.051 C 314.375 268.923,311.225 267.077,309.300 265.949 C 307.375 264.820,305.239 263.577,304.553 263.185 C 303.868 262.794,302.094 261.737,300.612 260.837 C 299.131 259.937,297.843 259.200,297.751 259.200 C 297.658 259.200,296.912 258.773,296.091 258.251 C 294.740 257.391,287.163 252.896,284.200 251.197 C 281.471 249.632,277.621 247.370,274.840 245.699 C 273.213 244.720,271.323 243.601,270.640 243.211 C 268.976 242.261,264.209 239.466,252.000 232.284 C 245.945 228.723,241.828 226.313,240.553 225.585 C 239.868 225.194,238.094 224.137,236.612 223.237 C 235.131 222.337,233.843 221.600,233.751 221.600 C 233.658 221.600,232.912 221.173,232.091 220.651 C 230.774 219.812,223.477 215.483,220.200 213.594 C 216.246 211.316,211.843 208.724,209.459 207.271 C 207.952 206.352,206.674 205.600,206.621 205.600 C 206.567 205.600,205.010 204.700,203.161 203.600 C 199.146 201.211,199.781 201.204,195.600 203.684 M204.853 205.125 C 207.794 206.844,213.980 210.477,218.600 213.198 C 223.220 215.919,230.420 220.154,234.600 222.608 C 238.780 225.063,245.350 228.927,249.200 231.195 C 253.050 233.463,257.190 235.890,258.400 236.588 C 259.610 237.286,264.380 240.083,269.000 242.804 C 273.620 245.524,279.740 249.123,282.600 250.801 C 285.460 252.480,292.030 256.340,297.200 259.381 C 302.370 262.421,311.370 267.706,317.200 271.125 C 332.158 279.898,337.039 282.766,346.600 288.400 C 351.220 291.122,357.430 294.768,360.400 296.501 C 363.370 298.235,365.948 299.798,366.129 299.976 C 366.311 300.153,363.701 301.909,360.329 303.877 C 356.958 305.846,346.100 312.200,336.200 317.998 C 326.300 323.797,311.540 332.437,303.400 337.199 C 295.260 341.961,282.660 349.340,275.400 353.597 C 268.140 357.854,261.210 361.909,260.000 362.609 C 258.790 363.309,251.410 367.628,243.600 372.208 C 235.790 376.788,228.410 381.109,227.200 381.810 C 225.990 382.510,219.253 386.448,212.230 390.559 L 199.460 398.034 176.430 384.855 C 163.763 377.606,134.950 361.112,112.400 348.201 C 89.850 335.290,62.400 319.586,51.400 313.303 C 40.400 307.020,31.247 301.745,31.061 301.580 C 30.874 301.416,32.044 300.518,33.661 299.585 C 35.277 298.652,38.940 296.501,41.800 294.806 C 44.660 293.111,50.780 289.508,55.400 286.800 C 60.020 284.092,66.140 280.492,69.000 278.799 C 71.860 277.107,77.350 273.872,81.200 271.609 C 85.050 269.347,92.070 265.210,96.800 262.415 C 101.530 259.621,109.180 255.116,113.800 252.405 C 118.420 249.694,124.540 246.092,127.400 244.400 C 130.260 242.708,136.380 239.104,141.000 236.392 C 145.620 233.679,151.740 230.080,154.600 228.393 C 157.460 226.706,163.400 223.206,167.800 220.616 C 172.200 218.025,177.960 214.627,180.600 213.064 C 186.604 209.511,199.382 202.017,199.453 202.007 C 199.481 202.003,201.911 203.406,204.853 205.125 " stroke="none" fill="#276d95" fill-rule="evenodd"></path></g></svg>