<?xml version="1.0" encoding="UTF-8"?>
<svg version="1.1" xmlns="http://www.w3.org/2000/svg" width="500" height="500">
<path d="M0 0 C165 0 330 0 500 0 C500 165 500 330 500 500 C335 500 170 500 0 500 C0 335 0 170 0 0 Z " fill="#7F0000" transform="translate(0,0)"/>
<path d="M0 0 C0.3652439 31.04097767 0.64827519 62.08138565 0.81704527 93.12400293 C0.83705585 96.79133101 0.85776507 100.45865483 0.87890625 104.12597656 C0.88310322 104.85605408 0.88730018 105.58613159 0.89162433 106.33833267 C0.96118956 118.14981762 1.08730728 129.96005276 1.23444474 141.770797 C1.38423389 153.89580029 1.47297354 166.02015053 1.50541592 178.14604104 C1.52733975 185.6253069 1.59648023 193.10104054 1.72666347 200.57921834 C1.82149505 206.32020877 1.83124504 212.05895238 1.8097229 217.80056953 C1.81411811 220.15092369 1.84586566 222.50141375 1.9072876 224.85096931 C2.33639585 242.11511152 2.33639585 242.11511152 -1.52855301 246.88739634 C-5.25352695 250.10512547 -9.37133856 252.16482478 -13.88461494 254.0577929 C-17.44477511 255.6435128 -20.69170205 257.73386045 -24 259.78125 C-25.32114936 260.56548494 -26.64386502 261.34709264 -27.96875 262.125 C-42.08219258 270.40155229 -42.08219258 270.40155229 -56 279 C-63.7854374 283.95416579 -71.74509983 288.61637671 -79.6875 293.3125 C-88.67677429 298.62770075 -97.64648195 303.96024786 -106.5 309.5 C-115.14855358 314.90970866 -123.9063171 320.12231114 -132.6875 325.3125 C-142.51468401 331.12103897 -152.29514979 336.98854284 -162 343 C-165.72303129 345.29560889 -169.44833638 347.58749311 -173.17492676 349.87731934 C-174.45993933 350.66778557 -175.74430434 351.45930499 -177.02819824 352.25158691 C-181.40911561 354.9547487 -185.79997453 357.64047202 -190.20410156 360.30566406 C-191.64349196 361.18043528 -193.07942646 362.06092021 -194.51171875 362.94726562 C-196.50680251 364.18062416 -198.5131505 365.39319169 -200.5234375 366.6015625 C-201.41849503 367.16419296 -201.41849503 367.16419296 -202.33163452 367.7381897 C-204.02099609 368.73681641 -204.02099609 368.73681641 -207 370 C-208.32 369.34 -209.64 368.68 -211 368 C-211 287.15 -211 206.3 -211 123 C-205.72 120.03 -200.44 117.06 -195 114 C-190.76095427 111.51459947 -186.53117748 109.01919323 -182.3125 106.5 C-179.97207521 105.10685894 -177.63064841 103.71540713 -175.2890625 102.32421875 C-174.39591591 101.79334908 -174.39591591 101.79334908 -173.48472595 101.25175476 C-166.73572933 97.24344094 -159.9621184 93.27730022 -153.1875 89.3125 C-144.78162671 84.39188081 -136.38172588 79.4616949 -128 74.5 C-119.61827183 69.53830374 -111.21816298 64.60848093 -102.8125 59.6875 C-93.35845478 54.15257723 -83.92022837 48.59235241 -74.5 43 C-65.07976875 37.40764588 -55.64136691 31.84773091 -46.1875 26.3125 C-37.34770935 21.13593881 -28.51027613 15.955536 -19.6875 10.75 C-18.38171997 9.98103394 -18.38171997 9.98103394 -17.04956055 9.1965332 C-12.50815663 6.51397397 -8.02287352 3.77355871 -3.60473633 0.89160156 C-2 0 -2 0 0 0 Z " fill="#31C6EA" transform="translate(248,4)"/>
<path d="M0 0 C3.83498271 1.49175939 7.26599867 3.22020316 10.8125 5.31640625 C11.37013535 5.64460861 11.92777069 5.97281097 12.50230408 6.31095886 C14.33678048 7.39160178 16.16835821 8.47706071 18 9.5625 C19.2934864 10.32555949 20.58719137 11.08824859 21.88110352 11.85058594 C24.57407293 13.43756199 27.26609026 15.02613614 29.95751953 16.61572266 C35.66749528 19.98604111 41.39101507 23.33319595 47.11349487 26.68222046 C60.63400767 34.59718009 74.12477322 42.56206133 87.60644531 50.54296875 C99.5150728 57.59138487 111.44133482 64.60905756 123.38235474 71.60241699 C132.13792945 76.73050532 140.88153056 81.87830508 149.61328125 87.046875 C157.84735647 91.9173968 166.10153037 96.75342596 174.35708618 101.58740234 C183.74505838 107.08476983 193.11956063 112.60431047 202.4765625 118.15429688 C203.31316406 118.64994141 204.14976562 119.14558594 205.01171875 119.65625 C205.73834717 120.08744141 206.46497559 120.51863281 207.21362305 120.96289062 C208.45307809 121.68247584 209.71811025 122.35905512 211 123 C211 202.86 211 282.72 211 365 C207.37193866 363.54877547 204.25771216 362.12455815 200.88671875 360.234375 C199.89865234 359.68136719 198.91058594 359.12835938 197.89257812 358.55859375 C196.83490234 357.96175781 195.77722656 357.36492187 194.6875 356.75 C193.57955078 356.12738281 192.47160156 355.50476563 191.33007812 354.86328125 C182.84423074 350.07886134 174.42499183 345.18494065 166.02416992 340.25292969 C158.89799724 336.07918633 151.71613663 332.01593691 144.5 328 C135.27068598 322.86368611 126.12763027 317.59787465 117.01953125 312.25 C109.8947181 308.07756041 102.71453859 304.01504756 95.5 300 C86.27068598 294.86368611 77.12763027 289.59787465 68.01953125 284.25 C60.89471431 280.07755818 53.71445806 276.0151978 46.5 272 C34.23391637 265.170645 22.07611355 258.16007595 10 251 C8.79474466 250.66923745 8.79474466 250.66923745 7.56514072 250.33179283 C4.06474599 249.0344052 2.38117719 247.91505417 0 245 C-2.06881002 237.61650471 -1.25834816 229.4117526 -1.13525391 221.82861328 C-1.13243307 219.41396706 -1.13401668 216.99931225 -1.13967896 214.58467102 C-1.14195584 209.38683025 -1.11360565 204.190116 -1.05730057 198.99261856 C-0.97594798 191.47809622 -0.94997843 183.96418044 -0.93742065 176.44926547 C-0.9155466 164.25652257 -0.84903218 152.06444957 -0.75439453 139.87207031 C-0.66257156 128.02998196 -0.59180395 116.18807571 -0.54931641 104.34570312 C-0.54668917 103.61546555 -0.54406194 102.88522797 -0.54135509 102.13286199 C-0.52830449 98.46938948 -0.51566747 94.80591569 -0.50323606 91.14244103 C-0.39960715 60.7611478 -0.22276618 30.38066695 0 0 Z " fill="#31C6EA" transform="translate(252,4)"/>
<path d="M0 0 C2.80712891 1.32836914 2.80712891 1.32836914 5.7265625 3.03515625 C6.82613281 3.67130859 7.92570313 4.30746094 9.05859375 4.96289062 C10.24743886 5.66268733 11.43623971 6.36255922 12.625 7.0625 C13.87313121 7.78808509 15.12184019 8.51267712 16.37109375 9.23632812 C18.96481943 10.73981693 21.55601181 12.24753963 24.14550781 13.75830078 C30.07404532 17.2123716 36.03875159 20.60278834 42 24 C44.33371798 25.33266053 46.66685769 26.66633194 49 28 C50.16665603 28.66668529 51.33332269 29.33335196 52.5 30 C143.50000001 82.00000001 143.50000001 82.00000001 145.24972534 82.99984741 C146.41730253 83.66703147 147.58488473 84.33420675 148.75247192 85.00137329 C151.65524868 86.6600523 154.55792108 88.31891327 157.46044922 89.97802734 C162.87574682 93.07324529 168.29177203 96.16715729 173.71075439 99.25592041 C176.24092248 100.69820701 178.77062405 102.14131077 181.30029297 103.58447266 C183.06302514 104.58965924 184.82642247 105.59367908 186.58984375 106.59765625 C193.11001837 110.31794568 199.58299948 114.10428648 206 118 C203.13528056 121.08178817 200.28124375 123.21066948 196.65234375 125.328125 C195.05326172 126.26785156 195.05326172 126.26785156 193.421875 127.2265625 C192.26044497 127.90109041 191.09898582 128.57556818 189.9375 129.25 C188.72488116 129.96029042 187.51264813 130.67123988 186.30078125 131.3828125 C183.78387567 132.85997853 181.2653368 134.3343003 178.74560547 135.80664062 C172.98140107 139.17796363 167.24205722 142.59112809 161.5 146 C159.25662429 147.32961923 157.01313424 148.65904557 154.76953125 149.98828125 C150.78257578 152.35090015 146.79576316 154.71375963 142.80917358 157.07699585 C130.98924603 164.08379219 119.16666387 171.08600739 107.33544922 178.07373047 C96.70219275 184.35518196 86.07922387 190.65399353 75.45556641 196.95166016 C70.92476648 199.63744773 66.39354451 202.32252302 61.86230469 205.00756836 C59.62201744 206.33511586 57.381783 207.66275248 55.14160156 208.99047852 C50.01457513 212.02911603 44.88726815 215.06727356 39.75816345 218.10240173 C38.59054545 218.79343391 37.42303409 219.48464632 36.25563049 220.17604065 C33.39841988 221.86821301 30.53986861 223.55798258 27.67895508 225.24389648 C22.43673218 228.33899145 17.22397532 231.46627355 12.0703125 234.70703125 C11.15628662 235.27583008 10.24226074 235.84462891 9.30053711 236.43066406 C7.61265909 237.48474018 5.93305617 238.5522387 4.26391602 239.63574219 C0.92124418 241.71272809 -1.14799353 242.98832868 -5.13671875 243.04296875 C-8.52741282 241.80788646 -11.47446181 240.18278449 -14.5 238.25 C-15.8313077 237.42591329 -17.16338721 236.60307258 -18.49609375 235.78125 C-19.21651855 235.33394531 -19.93694336 234.88664063 -20.67919922 234.42578125 C-24.93889052 231.80884488 -29.25404854 229.28554495 -33.5625 226.75 C-35.45974307 225.63039074 -37.35687717 224.51059681 -39.25390625 223.390625 C-40.20539551 222.82923828 -41.15688477 222.26785156 -42.13720703 221.68945312 C-46.7593711 218.96172198 -51.37961088 216.23073618 -56 213.5 C-57.83332361 212.41665021 -59.66665695 211.33331689 -61.5 210.25 C-79.83333333 199.41666667 -98.16666667 188.58333333 -116.5 177.75 C-117.40709717 177.2139917 -118.31419434 176.6779834 -119.2487793 176.12573242 C-121.0861946 175.03997961 -122.92359689 173.95420479 -124.76098633 172.8684082 C-129.28176042 170.19691439 -133.80274334 167.52577545 -138.32421875 164.85546875 C-149.52999468 158.23685256 -160.73117988 151.61053793 -171.9230957 144.96850586 C-177.41693149 141.7093169 -182.91575787 138.45947159 -188.4296875 135.234375 C-189.43451172 134.64527344 -190.43933594 134.05617188 -191.47460938 133.44921875 C-193.35159105 132.34957292 -195.23038392 131.25301034 -197.11132812 130.16015625 C-201.32980274 127.68557761 -205.28425352 125.21113893 -209 122 C-188.90264361 109.29872042 -168.50299577 97.08281268 -148.1083374 84.86694336 C-139.052977 79.4426567 -130.01777312 73.98653334 -121 68.5 C-110.72505143 62.24858437 -100.42268479 56.04449823 -90.10449219 49.86474609 C-80.47653316 44.09740498 -70.87331123 38.29081114 -61.28561401 32.45681763 C-50.67963324 26.00437851 -40.03986636 19.60925412 -29.38476562 13.23828125 C-28.79617767 12.88573273 -28.20758972 12.5331842 -27.60116577 12.16995239 C-25.87280809 11.13613828 -24.14174421 10.10685282 -22.41064453 9.07763672 C-20.05215334 7.64093235 -17.74379379 6.18532891 -15.44482422 4.66064453 C-14.86558701 4.28343765 -14.28634979 3.90623077 -13.68955994 3.51759338 C-12.09669053 2.47594121 -10.51555931 1.41640198 -8.93530273 0.35571289 C-5.32197183 -1.31315732 -3.77630591 -1.14287415 0 0 Z " fill="#31C6EA" transform="translate(254,254)"/>
<path d="M0 0 C80.85 0 161.7 0 245 0 C245 165 245 330 245 500 C164.15 500 83.3 500 0 500 C2.86177269 497.13822731 5.28035752 495.52506064 8.7578125 493.515625 C9.61443985 493.01751312 9.61443985 493.01751312 10.4883728 492.50933838 C11.72050998 491.79338778 12.95384088 491.0794884 14.18823242 490.36743164 C17.49826058 488.45768768 20.79936492 486.53261646 24.1015625 484.609375 C24.77225769 484.21927246 25.44295288 483.82916992 26.13397217 483.42724609 C32.29059765 479.84203032 38.40021395 476.18102523 44.5 472.5 C53.42208229 467.12429524 62.3835076 461.82086823 71.375 456.5625 C80.80697817 451.04631658 90.22711586 445.51168157 99.625 439.9375 C100.73230469 439.28072266 101.83960938 438.62394531 102.98046875 437.94726562 C106.32063289 435.96538294 109.66039703 433.98282813 113 432 C126.81323448 423.7986449 140.63629274 415.6156911 154.5 407.5 C163.60257294 402.17071715 172.69851734 396.83056183 181.77563477 391.45800781 C183.42748172 390.48041752 185.07993793 389.50385692 186.73242188 388.52734375 C189.82690357 386.69357682 192.9150348 384.84972898 196 383 C196.59006836 382.64770325 197.18013672 382.29540649 197.78808594 381.93243408 C199.60171414 380.84722147 201.41072937 379.75468049 203.21875 378.66015625 C204.30091797 378.00797119 205.38308594 377.35578613 206.49804688 376.68383789 C209.08439395 375.24148945 209.08439395 375.24148945 210 373 C210.66 373 211.32 373 212 373 C211.67 290.83 211.34 208.66 211 124 C208.03 123.01 208.03 123.01 205 122 C203.2565544 121.07099256 201.54262076 120.08487075 199.859375 119.05078125 C198.88484375 118.4578125 197.9103125 117.86484375 196.90625 117.25390625 C195.8646875 116.61324219 194.823125 115.97257812 193.75 115.3125 C191.49593556 113.94207115 189.24104101 112.57315739 186.984375 111.20703125 C186.40675415 110.85685944 185.8291333 110.50668762 185.23400879 110.14590454 C179.20988847 106.50351304 173.10934612 102.99719836 167 99.5 C157.39967552 93.99553636 147.88974897 88.35813347 138.41650391 82.63818359 C129.68241465 77.37789549 120.86209555 72.27611609 112.02075195 67.19873047 C105.38978308 63.38796717 98.8091562 59.51367327 92.265625 55.5546875 C86.18943124 51.89732163 80.05818107 48.33220503 73.9375 44.75 C64.41875016 39.17838081 54.90948162 33.59169945 45.41918945 27.97167969 C40.11290066 24.83207244 34.79814755 21.7073326 29.4765625 18.59375 C28.82661316 18.21335571 28.17666382 17.83296143 27.50701904 17.44104004 C24.30378801 15.56651483 21.09977976 13.693339 17.89453125 11.82226562 C5.16540985 4.38379206 5.16540985 4.38379206 0 1 C0 0.67 0 0.34 0 0 Z " fill="#7F0000" transform="translate(255,0)"/>
<path d="M0 0 C4.3823847 1.87922724 8.30015979 4.37480049 12.3125 6.9375 C13.49212539 7.66726894 14.67331748 8.39451067 15.85595703 9.11938477 C18.33079349 10.63792146 20.79959751 12.1656389 23.26513672 13.69921875 C28.64201989 17.02864053 34.10696962 20.20641586 39.57241821 23.38751221 C41.99796305 24.80037041 44.41982457 26.2194793 46.84172058 27.63858032 C48.6721538 28.71110086 50.50299865 29.78291517 52.33398438 30.85449219 C52.93879639 31.20846069 53.5436084 31.5624292 54.16674805 31.92712402 C55.07420776 32.45819763 55.07420776 32.45819763 56 33 C60.87550842 35.85329894 65.75068762 38.70715822 70.625 41.5625 C71.22616638 41.91464569 71.82733276 42.26679138 72.44671631 42.62960815 C82.25886868 48.37880554 92.04634672 54.16883926 101.82543945 59.97412109 C110.75567229 65.27186056 119.7091936 70.52896599 128.66992188 75.77490234 C136.4563943 80.33349056 144.23557537 84.90391727 152 89.5 C159.92210759 94.18785266 167.85446492 98.85796778 175.7947998 103.51486206 C177.04941028 104.25073702 178.30388778 104.98683873 179.55822754 105.72317505 C185.70133666 109.32904938 191.84940853 112.92454266 198.03515625 116.45703125 C198.9269458 116.96733887 199.81873535 117.47764648 200.73754883 118.00341797 C202.36616873 118.93301794 203.99737199 119.85811222 205.6315918 120.77783203 C210.88980041 123.77960082 210.88980041 123.77960082 212 126 C212.09595389 127.36149406 212.13095487 128.72754572 212.13422108 130.09241295 C212.13867892 130.95432696 212.14313676 131.81624097 212.14772969 132.70427358 C212.14745315 134.13303868 212.14745315 134.13303868 212.14717102 135.59066772 C212.15084771 136.59819174 212.1545244 137.60571576 212.1583125 138.64377081 C212.16938253 142.04165305 212.17319876 145.43950474 212.17700195 148.83740234 C212.18326399 151.26467487 212.18991055 153.69194642 212.19691467 156.11921692 C212.21616533 163.41842461 212.22674551 170.71762981 212.23564246 178.01685518 C212.24002373 181.45222307 212.24539091 184.88758942 212.25063133 188.32295609 C212.26764323 199.73910642 212.28213862 211.15525579 212.28938007 222.57141685 C212.29129003 225.53459042 212.29321036 228.49776397 212.29516602 231.4609375 C212.29564976 232.1974391 212.2961335 232.93394071 212.2966319 233.69276054 C212.30493675 245.63042016 212.33028146 257.56797971 212.36274669 269.50559561 C212.39578902 281.75501469 212.41382621 294.00438287 212.41702431 306.25384676 C212.4191919 313.1342334 212.42797673 320.01447407 212.45348549 326.89481735 C212.47741519 333.36426266 212.48103597 339.83351622 212.47072411 346.3029995 C212.47022646 348.68146449 212.4766138 351.05994206 212.49028015 353.43836784 C212.50785632 356.67768714 212.50096309 359.91604669 212.48774719 363.15536499 C212.50420106 364.57743793 212.50420106 364.57743793 212.52098733 366.02823961 C212.45806967 372.38629155 212.45806967 372.38629155 210.12227154 375.51572609 C207.73218291 377.18730587 205.34354869 378.71260506 202.80078125 380.14453125 C201.76953125 380.73105469 200.73828125 381.31757813 199.67578125 381.921875 C198.56589844 382.54578125 197.45601563 383.1696875 196.3125 383.8125 C193.94180795 385.15890933 191.57422892 386.51073959 189.20703125 387.86328125 C188.60396149 388.20726959 188.00089172 388.55125793 187.37954712 388.90567017 C181.36422613 392.34531324 175.42862944 395.91328805 169.5 399.5 C160.951589 404.66255389 152.34856464 409.71626617 143.6875 414.6875 C134.46912213 419.97951915 125.32011911 425.36914157 116.21875 430.859375 C99.85115899 440.72806958 83.35742575 450.38758381 66.86288452 460.04205322 C59.23660835 464.50647677 51.62756427 468.99491403 44.0625 473.5625 C40.572988 475.66363169 37.06831355 477.73869496 33.5625 479.8125 C32.68363632 480.33238747 32.68363632 480.33238747 31.78701782 480.86277771 C28.85157722 482.59891698 25.9153454 484.33368762 22.97802734 486.06665039 C21.32988037 487.04106079 21.32988037 487.04106079 19.6484375 488.03515625 C18.55112305 488.67855957 17.45380859 489.32196289 16.32324219 489.98486328 C14.03554326 491.37207067 11.8282717 492.77367057 9.62207031 494.27685547 C-0.80847522 501.30429547 -0.80847522 501.30429547 -7.53271484 500.67529297 C-12.6650213 499.27058689 -16.89109834 496.44529248 -21.3125 493.5625 C-22.95903215 492.53130354 -24.60561779 491.50018657 -26.25444031 490.47265625 C-27.40597899 489.75370433 -28.55579093 489.03197991 -29.70393372 488.30761719 C-35.5526679 484.62114971 -41.51732824 481.14506087 -47.49780273 477.677948 C-58.61789709 471.22569764 -69.63055411 464.6085791 -80.60180664 457.90704346 C-87.89575641 453.45448247 -95.21855846 449.09461341 -102.69604492 444.95800781 C-107.5150147 442.29095395 -112.2396348 439.49417319 -116.95214844 436.64550781 C-122.46836826 433.31190356 -128.01177746 430.02580444 -133.5625 426.75 C-134.5016626 426.19570313 -135.4408252 425.64140625 -136.40844727 425.0703125 C-138.32822945 423.93740118 -140.24807023 422.80458915 -142.16796875 421.671875 C-144.87345762 420.07470364 -147.57763728 418.47534475 -150.28125 416.875 C-158.76715044 411.85315071 -167.25996445 406.84372223 -175.77189636 401.86610413 C-187.28510845 395.13302623 -198.78853088 388.38335834 -210.25 381.5625 C-211.32161377 380.92973145 -212.39322754 380.29696289 -213.49731445 379.64501953 C-214.47273193 379.06220215 -215.44814941 378.47938477 -216.453125 377.87890625 C-217.31067383 377.3691626 -218.16822266 376.85941895 -219.05175781 376.33422852 C-221 375 -221 375 -222 373 C-222.11727574 371.64612749 -222.17601711 370.28693587 -222.20405388 368.92828274 C-222.22392919 368.07090242 -222.24380451 367.2135221 -222.26428211 366.33016056 C-222.28115074 365.3826271 -222.29801937 364.43509364 -222.31539917 363.45884705 C-222.336715 362.45641183 -222.35803084 361.45397661 -222.3799926 360.42116457 C-222.44990731 357.03989358 -222.51209663 353.65853109 -222.57373047 350.27709961 C-222.62089538 347.86106803 -222.66809676 345.44503716 -222.71533203 343.02900696 C-223.1198611 321.66075857 -223.3704467 300.29057879 -223.56461196 278.91947275 C-223.59822097 275.22161471 -223.63297853 271.52376829 -223.66845703 267.82592773 C-223.67901928 266.72180446 -223.67901928 266.72180446 -223.68979491 265.59537566 C-223.80665747 253.69988584 -224.02894347 241.80865002 -224.2915666 229.91558533 C-224.55926655 217.69004332 -224.71545086 205.46670936 -224.76923668 193.23833662 C-224.80250594 186.37670084 -224.8860646 179.52354565 -225.09673691 172.66486931 C-226.37669304 129.72349553 -226.37669304 129.72349553 -219.19089508 121.09517288 C-212.83425894 114.88057457 -204.90425074 111.8214565 -196.55955887 109.21811104 C-191.22529929 107.39268246 -186.72005126 104.52904223 -182 101.5 C-180.23680039 100.44815345 -178.47026183 99.40186705 -176.69921875 98.36328125 C-175.79091309 97.82654785 -174.88260742 97.28981445 -173.94677734 96.73681641 C-168.24255427 93.37477473 -162.52658877 90.03273546 -156.8125 86.6875 C-147.35845478 81.15257723 -137.92022837 75.59235241 -128.5 70 C-118.46282925 64.04139753 -108.40335957 58.12236311 -98.33007812 52.22509766 C-90.54360621 47.66650973 -82.76435341 43.0962025 -75 38.5 C-66.51363094 33.47664642 -58.00958725 28.4838706 -49.5 23.5 C-40.45122551 18.19952794 -31.40624539 12.8928125 -22.375 7.5625 C-21.46298828 7.02496094 -20.55097656 6.48742187 -19.61132812 5.93359375 C-18.36125977 5.19496094 -18.36125977 5.19496094 -17.0859375 4.44140625 C-16.3645459 4.01545166 -15.6431543 3.58949707 -14.89990234 3.15063477 C-9.44942602 -0.15032834 -6.41031236 -1.10260414 0 0 Z M-13.234375 6.38671875 C-14.10650635 6.90588867 -14.9786377 7.42505859 -15.87719727 7.95996094 C-16.82522217 8.53004883 -17.77324707 9.10013672 -18.75 9.6875 C-20.7746853 10.8946223 -22.79942634 12.10165111 -24.82421875 13.30859375 C-25.85853027 13.92718262 -26.8928418 14.54577148 -27.95849609 15.18310547 C-32.48448793 17.88678433 -37.02294957 20.56916978 -41.5625 23.25 C-42.89752563 24.0395105 -42.89752563 24.0395105 -44.25952148 24.8449707 C-49.48364663 27.93222413 -54.71496023 31.00694649 -59.953125 34.0703125 C-62.40627345 35.50516825 -64.85941182 36.94004121 -67.3125 38.375 C-68.2355191 38.91486542 -68.2355191 38.91486542 -69.17718506 39.46563721 C-77.71546968 44.46187895 -86.21624477 49.5156208 -94.6875 54.625 C-104.10529402 60.30290282 -113.59909416 65.83489138 -123.13623047 71.30957031 C-132.03002026 76.42167559 -140.86134364 81.63387875 -149.67871094 86.87646484 C-158.5770555 92.16505531 -167.50528044 97.40071943 -176.44177246 102.6244812 C-186.41882741 108.45925567 -196.34437598 114.37529433 -206.23486328 120.35571289 C-207.20020996 120.93828857 -208.16555664 121.52086426 -209.16015625 122.12109375 C-210.00199463 122.6308374 -210.84383301 123.14058105 -211.71118164 123.66577148 C-213.76100575 124.86068228 -215.87781421 125.9389071 -218 127 C-218 207.85 -218 288.7 -218 372 C-216.68 372.66 -215.36 373.32 -214 374 C-211.06574206 372.89656356 -211.06574206 372.89656356 -208.00390625 370.93359375 C-207.13319992 370.41680305 -207.13319992 370.41680305 -206.24490356 369.88957214 C-204.3411127 368.75417309 -202.45213807 367.59627415 -200.5625 366.4375 C-199.2368577 365.64047603 -197.91043394 364.84475044 -196.58325195 364.05029297 C-188.41734502 359.14637632 -180.31031544 354.14289847 -172.23535156 349.09082031 C-164.33617391 344.16175761 -156.32781273 339.4241361 -148.3125 334.6875 C-138.48525212 328.87921652 -128.70332439 323.01383012 -119 317 C-108.72097925 310.63000422 -98.34881642 304.43375106 -87.93847656 298.28173828 C-77.85801295 292.32205326 -67.85723345 286.25203639 -57.90454102 280.08056641 C-47.63664646 273.73285135 -37.2516858 267.58680871 -26.84570312 261.46875 C-25.86435143 260.88989548 -25.86435143 260.88989548 -24.86317444 260.29934692 C-23.09213055 259.25476287 -21.31944339 258.21296631 -19.54663086 257.17138672 C-18.70707254 256.649468 -18.70707254 256.649468 -17.85055345 256.11700547 C-16.50360505 255.30397911 -15.121784 254.54790837 -13.72294861 253.82781017 C-8.99249451 251.23389056 -8.99249451 251.23389056 -6.17308986 246.84069276 C-5.86305194 244.18236762 -5.84275601 241.65290045 -5.91770935 238.97732544 C-5.91001953 237.97172856 -5.9023297 236.96613168 -5.89440686 235.93006217 C-5.87958483 232.56144253 -5.92906354 229.19686073 -5.97827148 225.82861328 C-5.98081023 223.41396683 -5.97938499 220.99931343 -5.97428894 218.58467102 C-5.97223978 213.38692333 -5.99775519 208.19008816 -6.04842949 202.99261856 C-6.12164668 195.47810976 -6.14501955 187.96409229 -6.15632141 180.44926547 C-6.17600795 168.25658803 -6.23587101 156.06445321 -6.32104492 143.87207031 C-6.40368564 132.02997549 -6.4673766 120.18802817 -6.50561523 108.34570312 C-6.50797975 107.61546555 -6.51034426 106.88522797 -6.51278042 106.13286199 C-6.52452596 102.46938926 -6.53589928 98.8059155 -6.54708755 95.14244103 C-6.64035329 64.76123891 -6.79951026 34.38069483 -7 4 C-9.67647673 4 -10.93780296 5.01122277 -13.234375 6.38671875 Z M-3 4 C-3.38807107 35.04093169 -3.68879144 66.08122029 -3.8681106 97.12400293 C-3.88937184 100.79133146 -3.91137539 104.4586552 -3.93383789 108.12597656 C-3.93829717 108.85605408 -3.94275645 109.58613159 -3.94735085 110.33833267 C-4.02126444 122.14990314 -4.15526412 133.96006272 -4.31159753 145.770797 C-4.47074838 157.89579022 -4.56503409 170.02004624 -4.59950441 182.14604104 C-4.6227991 189.62550535 -4.69625917 197.10098235 -4.83457994 204.57921834 C-4.93533971 210.32027829 -4.94569845 216.05880206 -4.92283058 221.80056953 C-4.92750055 224.15095217 -4.96123433 226.50148817 -5.02649307 228.85096931 C-5.78894563 240.57262036 -5.78894563 240.57262036 -1.34853244 250.90136957 C2.68046975 254.15750189 7.09241024 256.24145449 11.88874638 258.12738442 C15.05161808 259.43465091 17.87008494 261.15033576 20.80078125 262.9140625 C22.97072168 264.15215086 25.14130681 265.38910988 27.3125 266.625 C28.51113689 267.30847243 29.70970262 267.99206968 30.90820312 268.67578125 C33.37944998 270.08543528 35.850991 271.49457137 38.32275391 272.90332031 C43.63800078 275.93323389 48.94945176 278.96978764 54.26107788 282.00604248 C57.17388561 283.67098602 60.08695652 285.33546898 63 287 C64.16666792 287.66666448 65.33333459 288.33333114 66.5 289 C67.0775 289.33 67.655 289.66 68.25 290 C129.5 325 129.5 325 131.24993896 325.99996948 C132.41680407 326.66674664 133.58367419 327.33351503 134.75054932 328.00027466 C137.66422091 329.66517906 140.57780578 331.33023486 143.49121094 332.99560547 C148.77673004 336.01673348 154.06288969 339.03671256 159.3522644 342.05108643 C161.7303616 343.40641637 164.10807637 344.76241599 166.48565674 346.11865234 C168.23165324 347.11453536 169.97788593 348.11000426 171.72412109 349.10546875 C177.50999531 352.41027469 183.2801733 355.73902804 189.0234375 359.1171875 C190.13557617 359.77058105 191.24771484 360.42397461 192.39355469 361.09716797 C194.50337079 362.33953022 196.6109041 363.58577967 198.71582031 364.83642578 C199.64749023 365.38540527 200.57916016 365.93438477 201.5390625 366.5 C202.76423584 367.22703125 202.76423584 367.22703125 204.01416016 367.96875 C205.92288331 369.15362162 205.92288331 369.15362162 208 369 C208 289.14 208 209.28 208 127 C202.72 124.03 197.44 121.06 192 118 C188.59494284 116.01309575 185.19818072 114.01890913 181.8125 112 C179.93389291 110.88491251 178.05496931 109.77035813 176.17578125 108.65625 C175.18658691 108.06972656 174.19739258 107.48320313 173.17822266 106.87890625 C167.29595942 103.40142139 161.39704295 99.95234043 155.5 96.5 C146.11426607 91.00383167 136.73912324 85.49034471 127.38012695 79.94873047 C122.2857128 76.9346091 117.18394476 73.93339921 112.07421875 70.9453125 C111.47343002 70.59393219 110.8726413 70.24255188 110.25364685 69.88052368 C109.64634232 69.52533661 109.03903778 69.17014954 108.41333008 68.80419922 C107.17137613 68.07781758 105.92943282 67.35141775 104.6875 66.625 C104.07151947 66.26472717 103.45553894 65.90445435 102.82089233 65.53326416 C94.28325263 60.53738637 85.78306026 55.48409874 77.3125 50.375 C68.9291358 45.31951067 60.49156194 40.37150167 52 35.5 C37.5944452 27.23544134 23.35157227 18.70438642 9.171875 10.05859375 C8.46571045 9.62981934 7.7595459 9.20104492 7.03198242 8.75927734 C5.76409875 7.98883409 4.49844405 7.21470445 3.2355957 6.43603516 C0.32902122 4.56005548 0.32902122 4.56005548 -3 4 Z M-12.390625 256.05078125 C-13.47698242 256.72036865 -14.56333984 257.38995605 -15.68261719 258.07983398 C-16.2624939 258.44277557 -16.84237061 258.80571716 -17.43981934 259.17965698 C-20.5636782 261.13462301 -23.70522319 263.0608936 -26.84375 264.9921875 C-27.50308533 265.39910324 -28.16242065 265.80601898 -28.84173584 266.2252655 C-35.73509468 270.47237607 -42.70053352 274.59508467 -49.67272949 278.71102905 C-58.74386502 284.06684773 -67.80565409 289.42347572 -76.69482422 295.078125 C-83.99411112 299.68613159 -91.44724254 304.04113207 -98.875 308.4375 C-109.46785223 314.70811974 -120.02487286 321.02580585 -130.51074219 327.47412109 C-135.95547517 330.81166338 -141.41609659 334.12320447 -146.875 337.4375 C-147.48347778 337.80699768 -148.09195557 338.17649536 -148.71887207 338.55718994 C-156.13353676 343.05886265 -163.5574963 347.54445951 -171 352 C-173.38917852 353.4326961 -175.77797237 354.86603022 -178.16650391 356.29980469 C-180.29581297 357.57746351 -182.42578483 358.85399135 -184.55615234 360.12988281 C-187.79232208 362.06890607 -191.02489297 364.01382949 -194.25561523 365.96191406 C-195.53739113 366.73360373 -196.82026078 367.50347976 -198.10424805 368.27148438 C-199.899226 369.34551896 -201.69023748 370.42588992 -203.48046875 371.5078125 C-204.52098389 372.13316895 -205.56149902 372.75852539 -206.63354492 373.40283203 C-209.09610559 374.7828872 -209.09610559 374.7828872 -210 377 C-209.26289795 377.43119141 -208.5257959 377.86238281 -207.76635742 378.30664062 C-190.85624935 388.20167258 -173.97676589 398.14594384 -157.12792969 408.14501953 C-152.31754971 410.99775658 -147.50287619 413.84320687 -142.6875 416.6875 C-141.79877197 417.2124707 -140.91004395 417.73744141 -139.99438477 418.27832031 C-138.21942915 419.32670774 -136.44444559 420.37504786 -134.66943359 421.42333984 C-130.11251506 424.11481413 -125.55629881 426.80747679 -121 429.5 C-119.16666991 430.58333881 -117.33333658 431.66667215 -115.5 432.75 C-97.16666667 443.58333333 -78.83333333 454.41666667 -60.5 465.25 C-59.59193604 465.78657227 -58.68387207 466.32314453 -57.74829102 466.87597656 C-55.92061539 467.95598885 -54.09297847 469.03606665 -52.26538086 470.11621094 C-47.59580489 472.87590327 -42.92549807 475.63434627 -38.25390625 478.390625 C-37.30902344 478.94862793 -36.36414063 479.50663086 -35.390625 480.08154297 C-33.52596399 481.18160282 -31.66010374 482.27963278 -29.79296875 483.37548828 C-25.65460782 485.80977414 -21.54330561 488.2680817 -17.49609375 490.8515625 C-16.81409912 491.28114258 -16.13210449 491.71072266 -15.42944336 492.15332031 C-14.19055686 492.93775509 -12.95998113 493.73556207 -11.74047852 494.54980469 C-9.10290605 496.20938327 -7.27189977 496.99591965 -4.13671875 497.04296875 C0.21346414 495.5965194 3.81795704 493.36829177 7.6875 490.9375 C9.48111037 489.83616324 11.27541872 488.73596264 13.0703125 487.63671875 C14.0284082 487.04681152 14.98650391 486.4569043 15.97363281 485.84912109 C21.30296961 482.5928774 26.68502852 479.425886 32.0625 476.25 C33.79374047 475.22558772 35.52469511 474.20069368 37.25563049 473.17576599 C39.00766692 472.13839833 40.75991798 471.10139399 42.51220703 470.06445312 C48.17634187 466.71223021 53.83798505 463.35580168 59.5 460 C61.74348166 458.67055955 63.98697126 457.34113249 66.23046875 456.01171875 C70.21742422 453.64909985 74.20423684 451.28624037 78.19082642 448.92300415 C90.01075397 441.91620781 101.83333613 434.91399261 113.66455078 427.92626953 C121.98882654 423.00881696 130.30719594 418.08142009 138.62329102 413.15014648 C144.32411364 409.76968699 150.02678972 406.39247517 155.734375 403.0234375 C161.31568622 399.72789888 166.88956371 396.42008317 172.45898438 393.10449219 C174.93915241 391.62883229 177.42270925 390.15905363 179.90820312 388.69238281 C183.2059013 386.7457515 186.49667947 384.78786204 189.78323364 382.82247925 C191.04628796 382.06967466 192.31163692 381.32070591 193.57931519 380.57571411 C195.33369297 379.54381112 197.07920422 378.4968778 198.82421875 377.44921875 C199.82541748 376.85455811 200.82661621 376.25989746 201.8581543 375.6472168 C202.56496338 375.10363525 203.27177246 374.56005371 204 374 C204 373.01 204 372.02 204 371 C203.30777344 370.6189209 202.61554688 370.2378418 201.90234375 369.84521484 C188.48409987 362.44882778 175.13326746 354.96788125 161.92382812 347.20263672 C154.83227599 343.04330349 147.68391745 338.99743957 140.5 335 C131.27065229 329.86374835 122.12762875 324.59787376 113.01953125 319.25 C105.8947181 315.07756041 98.71453859 311.01504756 91.5 307 C82.27068598 301.86368611 73.12763027 296.59787465 64.01953125 291.25 C55.87098658 286.47804181 47.64188106 281.86122103 39.390625 277.26977539 C30.88086304 272.52245608 22.45319903 267.6429258 14.05273438 262.70507812 C11.37215262 261.13035309 8.68636199 259.56483643 6 258 C5.16082031 257.50129395 4.32164062 257.00258789 3.45703125 256.48876953 C2.66683594 256.02970215 1.87664062 255.57063477 1.0625 255.09765625 C0.37285156 254.69168213 -0.31679687 254.28570801 -1.02734375 253.86743164 C-5.67237999 251.82488043 -8.45231089 253.59552409 -12.390625 256.05078125 Z " fill="#040506" transform="translate(255,0)"/>
</svg>
